<mxfile host="app.diagrams.net" agent="Mozilla/5.0 (Macintosh; Intel Mac OS X 10_15_7) AppleWebKit/537.36 (KHTML, like Gecko) Chrome/136.0.0.0 Safari/537.36" version="27.0.6">
  <diagram name="Page-1" id="b5b7bab2-c9e2-2cf4-8b2a-24fd1a2a6d21">
    <mxGraphModel dx="967" dy="710" grid="0" gridSize="10" guides="1" tooltips="1" connect="1" arrows="1" fold="1" page="0" pageScale="1" pageWidth="827" pageHeight="1169" background="none" math="0" shadow="0">
      <root>
        <mxCell id="0" />
        <mxCell id="1" parent="0" />
        <mxCell id="6e0c8c40b5770093-72" value="" style="shape=folder;fontStyle=1;spacingTop=10;tabWidth=194;tabHeight=22;tabPosition=left;html=1;rounded=0;shadow=0;comic=0;labelBackgroundColor=none;strokeWidth=1;fillColor=none;fontFamily=Verdana;fontSize=10;align=center;" parent="1" vertex="1">
          <mxGeometry x="326.5" y="114.5" width="1001" height="940" as="geometry" />
        </mxCell>
        <mxCell id="6e0c8c40b5770093-6" value="" style="group" parent="1" vertex="1" connectable="0">
          <mxGeometry x="465.5" y="174.5" width="130" height="70" as="geometry" />
        </mxCell>
        <mxCell id="6e0c8c40b5770093-4" value="package" style="shape=folder;fontStyle=1;spacingTop=10;tabWidth=50;tabHeight=17;tabPosition=left;html=1;rounded=0;shadow=0;comic=0;labelBackgroundColor=none;strokeWidth=1;fontFamily=Verdana;fontSize=10;align=center;" parent="6e0c8c40b5770093-6" vertex="1">
          <mxGeometry width="130" height="70" as="geometry" />
        </mxCell>
        <mxCell id="6e0c8c40b5770093-5" value="" style="triangle;whiteSpace=wrap;html=1;rounded=0;shadow=0;comic=0;labelBackgroundColor=none;strokeWidth=1;fontFamily=Verdana;fontSize=10;align=center;rotation=-90;" parent="6e0c8c40b5770093-6" vertex="1">
          <mxGeometry x="100" y="25" width="15" height="20" as="geometry" />
        </mxCell>
        <mxCell id="6e0c8c40b5770093-7" value="" style="group" parent="1" vertex="1" connectable="0">
          <mxGeometry x="765.5" y="174.5" width="130" height="70" as="geometry" />
        </mxCell>
        <mxCell id="6e0c8c40b5770093-8" value="package" style="shape=folder;fontStyle=1;spacingTop=10;tabWidth=50;tabHeight=17;tabPosition=left;html=1;rounded=0;shadow=0;comic=0;labelBackgroundColor=none;strokeWidth=1;fontFamily=Verdana;fontSize=10;align=center;" parent="6e0c8c40b5770093-7" vertex="1">
          <mxGeometry width="130" height="70" as="geometry" />
        </mxCell>
        <mxCell id="6e0c8c40b5770093-9" value="" style="triangle;whiteSpace=wrap;html=1;rounded=0;shadow=0;comic=0;labelBackgroundColor=none;strokeWidth=1;fontFamily=Verdana;fontSize=10;align=center;rotation=-90;" parent="6e0c8c40b5770093-7" vertex="1">
          <mxGeometry x="100" y="25" width="15" height="20" as="geometry" />
        </mxCell>
        <mxCell id="6e0c8c40b5770093-18" value="" style="group" parent="1" vertex="1" connectable="0">
          <mxGeometry x="361.5" y="294.5" width="280" height="130" as="geometry" />
        </mxCell>
        <mxCell id="6e0c8c40b5770093-11" value="" style="shape=folder;fontStyle=1;spacingTop=10;tabWidth=123;tabHeight=24;tabPosition=left;html=1;rounded=0;shadow=0;comic=0;labelBackgroundColor=none;strokeWidth=1;fontFamily=Verdana;fontSize=10;align=center;" parent="6e0c8c40b5770093-18" vertex="1">
          <mxGeometry width="280" height="130" as="geometry" />
        </mxCell>
        <mxCell id="6e0c8c40b5770093-13" value="" style="triangle;whiteSpace=wrap;html=1;rounded=0;shadow=0;comic=0;labelBackgroundColor=none;strokeWidth=1;fontFamily=Verdana;fontSize=10;align=center;rotation=-90;" parent="6e0c8c40b5770093-18" vertex="1">
          <mxGeometry x="96" y="2" width="15" height="20" as="geometry" />
        </mxCell>
        <mxCell id="6e0c8c40b5770093-15" value="package" style="shape=folder;fontStyle=1;spacingTop=10;tabWidth=50;tabHeight=17;tabPosition=left;html=1;rounded=0;shadow=0;comic=0;labelBackgroundColor=none;strokeWidth=1;fontFamily=Verdana;fontSize=10;align=center;" parent="6e0c8c40b5770093-18" vertex="1">
          <mxGeometry x="18" y="40" width="112" height="70" as="geometry" />
        </mxCell>
        <mxCell id="6e0c8c40b5770093-17" value="package" style="shape=folder;fontStyle=1;spacingTop=10;tabWidth=50;tabHeight=17;tabPosition=left;html=1;rounded=0;shadow=0;comic=0;labelBackgroundColor=none;strokeWidth=1;fontFamily=Verdana;fontSize=10;align=center;" parent="6e0c8c40b5770093-18" vertex="1">
          <mxGeometry x="148" y="40" width="112" height="70" as="geometry" />
        </mxCell>
        <mxCell id="6e0c8c40b5770093-19" value="" style="group" parent="1" vertex="1" connectable="0">
          <mxGeometry x="685.5" y="298.5" width="280" height="130" as="geometry" />
        </mxCell>
        <mxCell id="6e0c8c40b5770093-20" value="" style="shape=folder;fontStyle=1;spacingTop=10;tabWidth=123;tabHeight=24;tabPosition=left;html=1;rounded=0;shadow=0;comic=0;labelBackgroundColor=none;strokeWidth=1;fontFamily=Verdana;fontSize=10;align=center;" parent="6e0c8c40b5770093-19" vertex="1">
          <mxGeometry width="280" height="130" as="geometry" />
        </mxCell>
        <mxCell id="6e0c8c40b5770093-21" value="" style="triangle;whiteSpace=wrap;html=1;rounded=0;shadow=0;comic=0;labelBackgroundColor=none;strokeWidth=1;fontFamily=Verdana;fontSize=10;align=center;rotation=-90;" parent="6e0c8c40b5770093-19" vertex="1">
          <mxGeometry x="96" y="2" width="15" height="20" as="geometry" />
        </mxCell>
        <mxCell id="6e0c8c40b5770093-22" value="package" style="shape=folder;fontStyle=1;spacingTop=10;tabWidth=50;tabHeight=17;tabPosition=left;html=1;rounded=0;shadow=0;comic=0;labelBackgroundColor=none;strokeWidth=1;fontFamily=Verdana;fontSize=10;align=center;" parent="6e0c8c40b5770093-19" vertex="1">
          <mxGeometry x="18" y="40" width="112" height="70" as="geometry" />
        </mxCell>
        <mxCell id="6e0c8c40b5770093-23" value="package" style="shape=folder;fontStyle=1;spacingTop=10;tabWidth=50;tabHeight=17;tabPosition=left;html=1;rounded=0;shadow=0;comic=0;labelBackgroundColor=none;strokeWidth=1;fontFamily=Verdana;fontSize=10;align=center;" parent="6e0c8c40b5770093-19" vertex="1">
          <mxGeometry x="148" y="40" width="112" height="70" as="geometry" />
        </mxCell>
        <mxCell id="6e0c8c40b5770093-30" value="" style="group" parent="1" vertex="1" connectable="0">
          <mxGeometry x="1045.5" y="294.5" width="230" height="480" as="geometry" />
        </mxCell>
        <mxCell id="6e0c8c40b5770093-24" value="" style="group" parent="6e0c8c40b5770093-30" vertex="1" connectable="0">
          <mxGeometry width="230" height="480" as="geometry" />
        </mxCell>
        <mxCell id="6e0c8c40b5770093-25" value="" style="shape=folder;fontStyle=1;spacingTop=10;tabWidth=123;tabHeight=24;tabPosition=left;html=1;rounded=0;shadow=0;comic=0;labelBackgroundColor=none;strokeWidth=1;fontFamily=Verdana;fontSize=10;align=center;" parent="6e0c8c40b5770093-24" vertex="1">
          <mxGeometry width="230" height="480" as="geometry" />
        </mxCell>
        <mxCell id="6e0c8c40b5770093-29" value="" style="triangle;whiteSpace=wrap;html=1;rounded=0;shadow=0;comic=0;labelBackgroundColor=none;strokeWidth=1;fontFamily=Verdana;fontSize=10;align=center;rotation=-90;" parent="6e0c8c40b5770093-24" vertex="1">
          <mxGeometry x="100" y="2" width="15" height="20" as="geometry" />
        </mxCell>
        <mxCell id="6e0c8c40b5770093-27" value="package" style="shape=folder;fontStyle=1;spacingTop=10;tabWidth=50;tabHeight=17;tabPosition=left;html=1;rounded=0;shadow=0;comic=0;labelBackgroundColor=none;strokeWidth=1;fontFamily=Verdana;fontSize=10;align=center;" parent="6e0c8c40b5770093-24" vertex="1">
          <mxGeometry x="59" y="79" width="112" height="70" as="geometry" />
        </mxCell>
        <mxCell id="6e0c8c40b5770093-31" value="package" style="shape=folder;fontStyle=1;spacingTop=10;tabWidth=50;tabHeight=17;tabPosition=left;html=1;rounded=0;shadow=0;comic=0;labelBackgroundColor=none;strokeWidth=1;fontFamily=Verdana;fontSize=10;align=center;" parent="6e0c8c40b5770093-24" vertex="1">
          <mxGeometry x="59" y="205" width="112" height="70" as="geometry" />
        </mxCell>
        <mxCell id="6e0c8c40b5770093-28" value="package" style="shape=folder;fontStyle=1;spacingTop=10;tabWidth=50;tabHeight=17;tabPosition=left;html=1;rounded=0;shadow=0;comic=0;labelBackgroundColor=none;strokeWidth=1;fontFamily=Verdana;fontSize=10;align=center;" parent="6e0c8c40b5770093-24" vertex="1">
          <mxGeometry x="59" y="340" width="112" height="70" as="geometry" />
        </mxCell>
        <mxCell id="6e0c8c40b5770093-67" style="edgeStyle=none;rounded=0;html=1;entryX=0.43;entryY=0.173;entryPerimeter=0;dashed=1;labelBackgroundColor=none;startFill=0;endArrow=open;endFill=0;endSize=10;fontFamily=Verdana;fontSize=10;" parent="1" source="6e0c8c40b5770093-33" target="6e0c8c40b5770093-47" edge="1">
          <mxGeometry relative="1" as="geometry" />
        </mxCell>
        <mxCell id="6e0c8c40b5770093-71" style="edgeStyle=elbowEdgeStyle;rounded=0;html=1;dashed=1;labelBackgroundColor=none;startFill=0;endArrow=open;endFill=0;endSize=10;fontFamily=Verdana;fontSize=10;elbow=vertical;" parent="1" source="6e0c8c40b5770093-33" target="6e0c8c40b5770093-25" edge="1">
          <mxGeometry relative="1" as="geometry" />
        </mxCell>
        <mxCell id="6e0c8c40b5770093-33" value="" style="shape=folder;fontStyle=1;spacingTop=10;tabWidth=123;tabHeight=24;tabPosition=left;html=1;rounded=0;shadow=0;comic=0;labelBackgroundColor=none;strokeColor=#000000;strokeWidth=1;fillColor=#ffffff;fontFamily=Verdana;fontSize=10;fontColor=#000000;align=center;" parent="1" vertex="1">
          <mxGeometry x="440.5" y="474.5" width="515" height="240" as="geometry" />
        </mxCell>
        <mxCell id="6e0c8c40b5770093-64" style="edgeStyle=elbowEdgeStyle;rounded=0;html=1;entryX=0.559;entryY=0.251;entryPerimeter=0;dashed=1;labelBackgroundColor=none;startFill=0;endArrow=open;endFill=0;endSize=10;fontFamily=Verdana;fontSize=10;" parent="1" source="6e0c8c40b5770093-42" target="6e0c8c40b5770093-44" edge="1">
          <mxGeometry relative="1" as="geometry" />
        </mxCell>
        <mxCell id="6e0c8c40b5770093-65" style="edgeStyle=none;rounded=0;html=1;dashed=1;labelBackgroundColor=none;startFill=0;endArrow=open;endFill=0;endSize=10;fontFamily=Verdana;fontSize=10;entryX=-0.003;entryY=0.411;entryPerimeter=0;" parent="1" source="6e0c8c40b5770093-42" target="6e0c8c40b5770093-45" edge="1">
          <mxGeometry relative="1" as="geometry" />
        </mxCell>
        <mxCell id="6e0c8c40b5770093-66" style="edgeStyle=none;rounded=0;html=1;dashed=1;labelBackgroundColor=none;startFill=0;endArrow=open;endFill=0;endSize=10;fontFamily=Verdana;fontSize=10;entryX=1.013;entryY=0.444;entryPerimeter=0;" parent="1" source="6e0c8c40b5770093-42" target="6e0c8c40b5770093-43" edge="1">
          <mxGeometry relative="1" as="geometry" />
        </mxCell>
        <mxCell id="6e0c8c40b5770093-42" value="package" style="shape=folder;fontStyle=1;spacingTop=10;tabWidth=50;tabHeight=17;tabPosition=left;html=1;rounded=0;shadow=0;comic=0;labelBackgroundColor=none;strokeColor=#000000;strokeWidth=1;fillColor=#ffffff;fontFamily=Verdana;fontSize=10;fontColor=#000000;align=center;" parent="1" vertex="1">
          <mxGeometry x="647.5" y="524.5" width="112" height="70" as="geometry" />
        </mxCell>
        <mxCell id="6e0c8c40b5770093-43" value="package" style="shape=folder;fontStyle=1;spacingTop=10;tabWidth=50;tabHeight=17;tabPosition=left;html=1;rounded=0;shadow=0;comic=0;labelBackgroundColor=none;strokeColor=#000000;strokeWidth=1;fillColor=#ffffff;fontFamily=Verdana;fontSize=10;fontColor=#000000;align=center;" parent="1" vertex="1">
          <mxGeometry x="483.5" y="624.5" width="112" height="70" as="geometry" />
        </mxCell>
        <mxCell id="6e0c8c40b5770093-44" value="package" style="shape=folder;fontStyle=1;spacingTop=10;tabWidth=50;tabHeight=17;tabPosition=left;html=1;rounded=0;shadow=0;comic=0;labelBackgroundColor=none;strokeColor=#000000;strokeWidth=1;fillColor=#ffffff;fontFamily=Verdana;fontSize=10;fontColor=#000000;align=center;" parent="1" vertex="1">
          <mxGeometry x="647.5" y="624.5" width="112" height="70" as="geometry" />
        </mxCell>
        <mxCell id="6e0c8c40b5770093-45" value="package" style="shape=folder;fontStyle=1;spacingTop=10;tabWidth=50;tabHeight=17;tabPosition=left;html=1;rounded=0;shadow=0;comic=0;labelBackgroundColor=none;strokeColor=#000000;strokeWidth=1;fillColor=#ffffff;fontFamily=Verdana;fontSize=10;fontColor=#000000;align=center;" parent="1" vertex="1">
          <mxGeometry x="799.5" y="624.5" width="112" height="70" as="geometry" />
        </mxCell>
        <mxCell id="6e0c8c40b5770093-68" style="edgeStyle=elbowEdgeStyle;rounded=0;html=1;entryX=0.628;entryY=0.26;entryPerimeter=0;dashed=1;labelBackgroundColor=none;startFill=0;endArrow=open;endFill=0;endSize=10;fontFamily=Verdana;fontSize=10;" parent="1" source="6e0c8c40b5770093-47" target="6e0c8c40b5770093-53" edge="1">
          <mxGeometry relative="1" as="geometry" />
        </mxCell>
        <mxCell id="6e0c8c40b5770093-69" style="edgeStyle=elbowEdgeStyle;rounded=0;html=1;entryX=0.643;entryY=0.246;entryPerimeter=0;dashed=1;labelBackgroundColor=none;startFill=0;endArrow=open;endFill=0;endSize=10;fontFamily=Verdana;fontSize=10;" parent="1" source="6e0c8c40b5770093-47" target="6e0c8c40b5770093-56" edge="1">
          <mxGeometry relative="1" as="geometry" />
        </mxCell>
        <mxCell id="6e0c8c40b5770093-70" style="edgeStyle=none;rounded=0;html=1;dashed=1;labelBackgroundColor=none;startFill=0;endArrow=open;endFill=0;endSize=10;fontFamily=Verdana;fontSize=10;exitX=1.003;exitY=0.363;exitPerimeter=0;" parent="1" source="6e0c8c40b5770093-47" target="6e0c8c40b5770093-25" edge="1">
          <mxGeometry relative="1" as="geometry" />
        </mxCell>
        <mxCell id="6e0c8c40b5770093-47" value="" style="shape=folder;fontStyle=1;spacingTop=10;tabWidth=123;tabHeight=24;tabPosition=left;html=1;rounded=0;shadow=0;comic=0;labelBackgroundColor=none;strokeWidth=1;fontFamily=Verdana;fontSize=10;align=center;" parent="1" vertex="1">
          <mxGeometry x="553.5" y="774.5" width="332" height="130" as="geometry" />
        </mxCell>
        <mxCell id="6e0c8c40b5770093-48" value="" style="triangle;whiteSpace=wrap;html=1;rounded=0;shadow=0;comic=0;labelBackgroundColor=none;strokeWidth=1;fontFamily=Verdana;fontSize=10;align=center;rotation=-90;" parent="1" vertex="1">
          <mxGeometry x="649.5" y="776.5" width="15" height="20" as="geometry" />
        </mxCell>
        <mxCell id="6e0c8c40b5770093-49" value="package" style="shape=folder;fontStyle=1;spacingTop=10;tabWidth=50;tabHeight=17;tabPosition=left;html=1;rounded=0;shadow=0;comic=0;labelBackgroundColor=none;strokeWidth=1;fontFamily=Verdana;fontSize=10;align=center;" parent="1" vertex="1">
          <mxGeometry x="571.5" y="814.5" width="112" height="70" as="geometry" />
        </mxCell>
        <mxCell id="6e0c8c40b5770093-50" value="package" style="shape=folder;fontStyle=1;spacingTop=10;tabWidth=50;tabHeight=17;tabPosition=left;html=1;rounded=0;shadow=0;comic=0;labelBackgroundColor=none;strokeWidth=1;fontFamily=Verdana;fontSize=10;align=center;" parent="1" vertex="1">
          <mxGeometry x="740.5" y="814.5" width="112" height="70" as="geometry" />
        </mxCell>
        <mxCell id="6e0c8c40b5770093-51" value="" style="triangle;whiteSpace=wrap;html=1;rounded=0;shadow=0;comic=0;labelBackgroundColor=none;strokeColor=#000000;strokeWidth=1;fillColor=#ffffff;fontFamily=Verdana;fontSize=10;fontColor=#000000;align=center;rotation=-90;" parent="1" vertex="1">
          <mxGeometry x="538.5" y="476.5" width="15" height="20" as="geometry" />
        </mxCell>
        <mxCell id="6e0c8c40b5770093-52" value="" style="group" parent="1" vertex="1" connectable="0">
          <mxGeometry x="576.5" y="954.5694795496323" width="130" height="70" as="geometry" />
        </mxCell>
        <mxCell id="6e0c8c40b5770093-53" value="package" style="shape=folder;fontStyle=1;spacingTop=10;tabWidth=50;tabHeight=17;tabPosition=left;html=1;rounded=0;shadow=0;comic=0;labelBackgroundColor=none;strokeWidth=1;fontFamily=Verdana;fontSize=10;align=center;" parent="6e0c8c40b5770093-52" vertex="1">
          <mxGeometry width="130" height="70" as="geometry" />
        </mxCell>
        <mxCell id="6e0c8c40b5770093-54" value="" style="triangle;whiteSpace=wrap;html=1;rounded=0;shadow=0;comic=0;labelBackgroundColor=none;strokeWidth=1;fontFamily=Verdana;fontSize=10;align=center;rotation=-90;" parent="6e0c8c40b5770093-52" vertex="1">
          <mxGeometry x="100" y="25" width="15" height="20" as="geometry" />
        </mxCell>
        <mxCell id="6e0c8c40b5770093-55" value="" style="group" parent="1" vertex="1" connectable="0">
          <mxGeometry x="743.5" y="954.5694795496323" width="130" height="70" as="geometry" />
        </mxCell>
        <mxCell id="6e0c8c40b5770093-56" value="package" style="shape=folder;fontStyle=1;spacingTop=10;tabWidth=50;tabHeight=17;tabPosition=left;html=1;rounded=0;shadow=0;comic=0;labelBackgroundColor=none;strokeWidth=1;fontFamily=Verdana;fontSize=10;align=center;" parent="6e0c8c40b5770093-55" vertex="1">
          <mxGeometry width="130" height="70" as="geometry" />
        </mxCell>
        <mxCell id="6e0c8c40b5770093-57" value="" style="triangle;whiteSpace=wrap;html=1;rounded=0;shadow=0;comic=0;labelBackgroundColor=none;strokeWidth=1;fontFamily=Verdana;fontSize=10;align=center;rotation=-90;" parent="6e0c8c40b5770093-55" vertex="1">
          <mxGeometry x="100" y="25" width="15" height="20" as="geometry" />
        </mxCell>
        <mxCell id="6e0c8c40b5770093-58" style="rounded=0;html=1;dashed=1;labelBackgroundColor=none;startFill=0;endArrow=open;endFill=0;endSize=10;fontFamily=Verdana;fontSize=10;entryX=0.592;entryY=0.2;entryPerimeter=0;edgeStyle=elbowEdgeStyle;" parent="1" source="6e0c8c40b5770093-4" target="6e0c8c40b5770093-11" edge="1">
          <mxGeometry relative="1" as="geometry" />
        </mxCell>
        <mxCell id="6e0c8c40b5770093-59" style="rounded=0;html=1;dashed=1;labelBackgroundColor=none;startFill=0;endArrow=open;endFill=0;endSize=10;fontFamily=Verdana;fontSize=10;entryX=0.592;entryY=0.2;entryPerimeter=0;edgeStyle=elbowEdgeStyle;" parent="1" edge="1">
          <mxGeometry relative="1" as="geometry">
            <mxPoint x="843.3275862068965" y="244.5" as="sourcePoint" />
            <mxPoint x="843.3275862068965" y="320.84482758620686" as="targetPoint" />
          </mxGeometry>
        </mxCell>
        <mxCell id="6e0c8c40b5770093-60" style="rounded=0;html=1;entryX=0.452;entryY=0.1;entryPerimeter=0;dashed=1;labelBackgroundColor=none;startFill=0;endArrow=open;endFill=0;endSize=10;fontFamily=Verdana;fontSize=10;" parent="1" source="6e0c8c40b5770093-11" target="6e0c8c40b5770093-33" edge="1">
          <mxGeometry relative="1" as="geometry" />
        </mxCell>
        <mxCell id="6e0c8c40b5770093-61" style="edgeStyle=none;rounded=0;html=1;entryX=0.69;entryY=0.102;entryPerimeter=0;dashed=1;labelBackgroundColor=none;startFill=0;endArrow=open;endFill=0;endSize=10;fontFamily=Verdana;fontSize=10;" parent="1" source="6e0c8c40b5770093-20" target="6e0c8c40b5770093-33" edge="1">
          <mxGeometry relative="1" as="geometry" />
        </mxCell>
        <mxCell id="6e0c8c40b5770093-62" style="edgeStyle=none;rounded=0;html=1;dashed=1;labelBackgroundColor=none;startFill=0;endArrow=open;endFill=0;endSize=10;fontFamily=Verdana;fontSize=10;exitX=1.002;exitY=0.668;exitPerimeter=0;" parent="1" source="6e0c8c40b5770093-20" target="6e0c8c40b5770093-25" edge="1">
          <mxGeometry relative="1" as="geometry" />
        </mxCell>
        <mxCell id="6e0c8c40b5770093-63" style="edgeStyle=orthogonalEdgeStyle;rounded=0;html=1;dashed=1;labelBackgroundColor=none;startFill=0;endArrow=open;endFill=0;endSize=10;fontFamily=Verdana;fontSize=10;" parent="1" source="6e0c8c40b5770093-11" target="6e0c8c40b5770093-25" edge="1">
          <mxGeometry relative="1" as="geometry">
            <Array as="points">
              <mxPoint x="665.5" y="359.5" />
              <mxPoint x="665.5" y="464.5" />
            </Array>
          </mxGeometry>
        </mxCell>
        <mxCell id="6e0c8c40b5770093-73" value="&amp;lt;&amp;lt;model&amp;gt;&amp;gt;" style="text;html=1;align=left;verticalAlign=top;spacingTop=-4;fontSize=10;fontFamily=Verdana" parent="1" vertex="1">
          <mxGeometry x="327.5" y="114.5" width="130" height="20" as="geometry" />
        </mxCell>
        <mxCell id="X1G4WeDQcSUgegYFDChN-1" value="" style="whiteSpace=wrap;html=1;" parent="1" vertex="1">
          <mxGeometry x="440" y="1090" width="120" height="60" as="geometry" />
        </mxCell>
        <mxCell id="X1G4WeDQcSUgegYFDChN-2" value="" style="whiteSpace=wrap;html=1;" parent="1" vertex="1">
          <mxGeometry x="600" y="1100" width="120" height="60" as="geometry" />
        </mxCell>
        <mxCell id="X1G4WeDQcSUgegYFDChN-3" value="" style="whiteSpace=wrap;html=1;" parent="1" vertex="1">
          <mxGeometry x="720" y="1130" width="120" height="60" as="geometry" />
        </mxCell>
        <mxCell id="X1G4WeDQcSUgegYFDChN-4" value="" style="group" parent="1" vertex="1" connectable="0">
          <mxGeometry x="397" y="1486" width="130" height="70" as="geometry" />
        </mxCell>
        <mxCell id="X1G4WeDQcSUgegYFDChN-5" value="View" style="shape=folder;fontStyle=1;spacingTop=10;tabWidth=50;tabHeight=17;tabPosition=left;html=1;rounded=0;shadow=0;comic=0;labelBackgroundColor=none;strokeWidth=1;fontFamily=Verdana;fontSize=10;align=center;" parent="X1G4WeDQcSUgegYFDChN-4" vertex="1">
          <mxGeometry width="130" height="70" as="geometry" />
        </mxCell>
        <mxCell id="X1G4WeDQcSUgegYFDChN-7" value="Controller" style="shape=folder;fontStyle=1;spacingTop=10;tabWidth=50;tabHeight=17;tabPosition=left;html=1;rounded=0;shadow=0;comic=0;labelBackgroundColor=none;strokeWidth=1;fontFamily=Verdana;fontSize=10;align=center;" parent="1" vertex="1">
          <mxGeometry x="397" y="1637" width="130" height="70" as="geometry" />
        </mxCell>
        <mxCell id="X1G4WeDQcSUgegYFDChN-8" value="Model" style="shape=folder;fontStyle=1;spacingTop=10;tabWidth=50;tabHeight=17;tabPosition=left;html=1;rounded=0;shadow=0;comic=0;labelBackgroundColor=none;strokeWidth=1;fontFamily=Verdana;fontSize=10;align=center;" parent="1" vertex="1">
          <mxGeometry x="397" y="1779" width="130" height="70" as="geometry" />
        </mxCell>
        <mxCell id="X1G4WeDQcSUgegYFDChN-9" value="" style="group" parent="1" vertex="1" connectable="0">
          <mxGeometry x="246" y="1556" width="104" height="166" as="geometry" />
        </mxCell>
        <mxCell id="X1G4WeDQcSUgegYFDChN-29" value="" style="shape=folder;fontStyle=1;spacingTop=10;tabWidth=50;tabHeight=17;tabPosition=left;html=1;rounded=0;shadow=0;comic=0;labelBackgroundColor=none;strokeWidth=1;fontFamily=Verdana;fontSize=10;align=center;" parent="X1G4WeDQcSUgegYFDChN-9" vertex="1">
          <mxGeometry x="-150.4" y="8.798586572438163" width="254.39999999999998" height="157.20141342756185" as="geometry" />
        </mxCell>
        <mxCell id="X1G4WeDQcSUgegYFDChN-10" value="Utils" style="shape=folder;fontStyle=1;spacingTop=10;tabWidth=50;tabHeight=17;tabPosition=left;html=1;rounded=0;shadow=0;comic=0;labelBackgroundColor=none;strokeWidth=1;fontFamily=Verdana;fontSize=10;align=center;" parent="X1G4WeDQcSUgegYFDChN-9" vertex="1">
          <mxGeometry x="-8" y="35.19434628975265" width="104.00000000000001" height="41.0600706713781" as="geometry" />
        </mxCell>
        <mxCell id="X1G4WeDQcSUgegYFDChN-16" value="" style="group" parent="X1G4WeDQcSUgegYFDChN-9" vertex="1" connectable="0">
          <mxGeometry x="-137.60000000000002" y="36.95406360424029" width="104.00000000000001" height="41.0600706713781" as="geometry" />
        </mxCell>
        <mxCell id="X1G4WeDQcSUgegYFDChN-17" value="Widget" style="shape=folder;fontStyle=1;spacingTop=10;tabWidth=50;tabHeight=17;tabPosition=left;html=1;rounded=0;shadow=0;comic=0;labelBackgroundColor=none;strokeWidth=1;fontFamily=Verdana;fontSize=10;align=center;" parent="X1G4WeDQcSUgegYFDChN-16" vertex="1">
          <mxGeometry width="104.00000000000001" height="41.0600706713781" as="geometry" />
        </mxCell>
        <mxCell id="X1G4WeDQcSUgegYFDChN-11" value="" style="group" parent="X1G4WeDQcSUgegYFDChN-9" vertex="1" connectable="0">
          <mxGeometry x="-68.00000000000001" y="97.37102473498233" width="104.00000000000001" height="41.0600706713781" as="geometry" />
        </mxCell>
        <mxCell id="X1G4WeDQcSUgegYFDChN-12" value="Router" style="shape=folder;fontStyle=1;spacingTop=10;tabWidth=50;tabHeight=17;tabPosition=left;html=1;rounded=0;shadow=0;comic=0;labelBackgroundColor=none;strokeWidth=1;fontFamily=Verdana;fontSize=10;align=center;" parent="X1G4WeDQcSUgegYFDChN-11" vertex="1">
          <mxGeometry width="104.00000000000001" height="41.0600706713781" as="geometry" />
        </mxCell>
        <mxCell id="X1G4WeDQcSUgegYFDChN-20" style="edgeStyle=elbowEdgeStyle;rounded=0;html=1;dashed=1;labelBackgroundColor=none;startFill=0;endArrow=open;endFill=0;endSize=10;fontFamily=Verdana;fontSize=10;exitX=0.5;exitY=1;exitDx=0;exitDy=0;exitPerimeter=0;entryX=0.496;entryY=0.243;entryDx=0;entryDy=0;entryPerimeter=0;" parent="1" source="X1G4WeDQcSUgegYFDChN-5" target="X1G4WeDQcSUgegYFDChN-7" edge="1">
          <mxGeometry relative="1" as="geometry">
            <mxPoint x="531" y="1652" as="sourcePoint" />
            <mxPoint x="531" y="1720" as="targetPoint" />
          </mxGeometry>
        </mxCell>
        <mxCell id="X1G4WeDQcSUgegYFDChN-22" style="edgeStyle=elbowEdgeStyle;rounded=0;html=1;dashed=1;labelBackgroundColor=none;startFill=0;endArrow=open;endFill=0;endSize=10;fontFamily=Verdana;fontSize=10;entryX=0.509;entryY=0.105;entryDx=0;entryDy=0;entryPerimeter=0;" parent="1" target="X1G4WeDQcSUgegYFDChN-29" edge="1">
          <mxGeometry relative="1" as="geometry">
            <mxPoint x="397" y="1522" as="sourcePoint" />
            <mxPoint x="225" y="1577" as="targetPoint" />
            <Array as="points">
              <mxPoint x="225" y="1568" />
            </Array>
          </mxGeometry>
        </mxCell>
        <mxCell id="X1G4WeDQcSUgegYFDChN-23" style="edgeStyle=elbowEdgeStyle;rounded=0;html=1;dashed=1;labelBackgroundColor=none;startFill=0;endArrow=open;endFill=0;endSize=10;fontFamily=Verdana;fontSize=10;exitX=0.5;exitY=1;exitDx=0;exitDy=0;exitPerimeter=0;entryX=0.513;entryY=0.238;entryDx=0;entryDy=0;entryPerimeter=0;" parent="1" source="X1G4WeDQcSUgegYFDChN-7" target="X1G4WeDQcSUgegYFDChN-8" edge="1">
          <mxGeometry relative="1" as="geometry">
            <mxPoint x="455" y="1608" as="sourcePoint" />
            <mxPoint x="454" y="1706" as="targetPoint" />
          </mxGeometry>
        </mxCell>
        <mxCell id="ycrKc_nbZSUXtRXo9pA7-1" value="" style="whiteSpace=wrap;html=1;" vertex="1" parent="1">
          <mxGeometry x="1332" y="2292" width="120" height="60" as="geometry" />
        </mxCell>
        <mxCell id="ycrKc_nbZSUXtRXo9pA7-2" value="&lt;p style=&quot;margin:0px;margin-top:4px;text-align:center;&quot;&gt;&lt;b&gt;Class&lt;/b&gt;&lt;/p&gt;&lt;hr size=&quot;1&quot; style=&quot;border-style:solid;&quot;/&gt;&lt;div style=&quot;height:2px;&quot;&gt;&lt;/div&gt;&lt;hr size=&quot;1&quot; style=&quot;border-style:solid;&quot;/&gt;&lt;div style=&quot;height:2px;&quot;&gt;&lt;/div&gt;" style="verticalAlign=top;align=left;overflow=fill;html=1;whiteSpace=wrap;" vertex="1" parent="1">
          <mxGeometry x="1999" y="644" width="140" height="60" as="geometry" />
        </mxCell>
        <mxCell id="ycrKc_nbZSUXtRXo9pA7-3" value="&lt;p style=&quot;margin:0px;margin-top:4px;text-align:center;&quot;&gt;&lt;b&gt;Project&lt;/b&gt;&lt;/p&gt;&lt;hr size=&quot;1&quot; style=&quot;border-style:solid;&quot;&gt;&lt;p style=&quot;margin:0px;margin-left:4px;&quot;&gt;+ id: String&amp;nbsp;&amp;nbsp;&lt;/p&gt;&lt;p style=&quot;margin:0px;margin-left:4px;&quot;&gt;+ title: String&amp;nbsp;&amp;nbsp;&lt;/p&gt;&lt;p style=&quot;margin:0px;margin-left:4px;&quot;&gt;+ description: String&amp;nbsp;&amp;nbsp;&lt;/p&gt;&lt;p style=&quot;margin:0px;margin-left:4px;&quot;&gt;+ status: Status&amp;nbsp;&amp;nbsp;&lt;/p&gt;&lt;p style=&quot;margin:0px;margin-left:4px;&quot;&gt;+ priority: Priority&amp;nbsp;&amp;nbsp;&lt;/p&gt;&lt;p style=&quot;margin:0px;margin-left:4px;&quot;&gt;+ startDate: DateTime&amp;nbsp;&amp;nbsp;&lt;/p&gt;&lt;p style=&quot;margin:0px;margin-left:4px;&quot;&gt;+ endDate: DateTime&amp;nbsp;&amp;nbsp;&lt;/p&gt;&lt;p style=&quot;margin:0px;margin-left:4px;&quot;&gt;+ taskIds: List&amp;lt;String&amp;gt;&amp;nbsp;&amp;nbsp;&lt;/p&gt;&lt;p style=&quot;margin:0px;margin-left:4px;&quot;&gt;+ userIds: List&amp;lt;String&amp;gt;&amp;nbsp;&amp;nbsp;&lt;/p&gt;&lt;p style=&quot;margin:0px;margin-left:4px;&quot;&gt;+ attachments: List&amp;lt;String&amp;gt;&amp;nbsp;&amp;nbsp;&lt;/p&gt;&lt;p style=&quot;margin:0px;margin-left:4px;&quot;&gt;+ owner: String&amp;nbsp;&amp;nbsp;&lt;/p&gt;&lt;p style=&quot;margin:0px;margin-left:4px;&quot;&gt;+ idTag: String&amp;nbsp;&amp;nbsp;&lt;/p&gt;&lt;hr size=&quot;1&quot; style=&quot;border-style:solid;&quot;&gt;&lt;p style=&quot;margin:0px;margin-left:4px;&quot;&gt;+ getId(): String&amp;nbsp;&amp;nbsp;&lt;/p&gt;&lt;p style=&quot;margin:0px;margin-left:4px;&quot;&gt;+ setId(id: String): void&amp;nbsp;&amp;nbsp;&lt;/p&gt;&lt;p style=&quot;margin:0px;margin-left:4px;&quot;&gt;&lt;span style=&quot;background-color: transparent; color: light-dark(rgb(0, 0, 0), rgb(255, 255, 255));&quot;&gt;+ getTitle(): String&amp;nbsp;&amp;nbsp;&lt;/span&gt;&lt;/p&gt;&lt;p style=&quot;margin:0px;margin-left:4px;&quot;&gt;+ setTitle(title: String): void&amp;nbsp;&amp;nbsp;&lt;/p&gt;&lt;p style=&quot;margin:0px;margin-left:4px;&quot;&gt;+ getDescription(): String&amp;nbsp;&amp;nbsp;&lt;/p&gt;&lt;p style=&quot;margin:0px;margin-left:4px;&quot;&gt;+ setDescription(description: String): void&amp;nbsp;&amp;nbsp;&lt;/p&gt;&lt;p style=&quot;margin:0px;margin-left:4px;&quot;&gt;+ getStatus(): Status&amp;nbsp;&amp;nbsp;&lt;/p&gt;&lt;p style=&quot;margin:0px;margin-left:4px;&quot;&gt;+ setStatus(status: Status): void&amp;nbsp;&amp;nbsp;&lt;/p&gt;&lt;p style=&quot;margin:0px;margin-left:4px;&quot;&gt;+ getPriority(): Priority&amp;nbsp;&amp;nbsp;&lt;/p&gt;&lt;p style=&quot;margin:0px;margin-left:4px;&quot;&gt;+ setPriority(priority: Priority): void&amp;nbsp;&amp;nbsp;&lt;/p&gt;&lt;p style=&quot;margin:0px;margin-left:4px;&quot;&gt;+ getStartDate(): DateTime&amp;nbsp;&amp;nbsp;&lt;/p&gt;&lt;p style=&quot;margin:0px;margin-left:4px;&quot;&gt;+ setStartDate(startDate: DateTime): void&amp;nbsp;&amp;nbsp;&lt;/p&gt;&lt;p style=&quot;margin:0px;margin-left:4px;&quot;&gt;+ getEndDate(): DateTime&amp;nbsp;&amp;nbsp;&lt;/p&gt;&lt;p style=&quot;margin:0px;margin-left:4px;&quot;&gt;+ setEndDate(endDate: DateTime): void&amp;nbsp;&amp;nbsp;&lt;/p&gt;&lt;p style=&quot;margin:0px;margin-left:4px;&quot;&gt;+ getTaskIds(): List&amp;lt;String&amp;gt;&amp;nbsp;&amp;nbsp;&lt;/p&gt;&lt;p style=&quot;margin:0px;margin-left:4px;&quot;&gt;+ setTaskIds(taskIds: List&amp;lt;String&amp;gt;): void&amp;nbsp;&amp;nbsp;&lt;/p&gt;&lt;p style=&quot;margin:0px;margin-left:4px;&quot;&gt;+ getUserIds(): List&amp;lt;String&amp;gt;&amp;nbsp;&amp;nbsp;&lt;/p&gt;&lt;p style=&quot;margin:0px;margin-left:4px;&quot;&gt;+ setUserIds(userIds: List&amp;lt;String&amp;gt;): void&amp;nbsp;&amp;nbsp;&lt;/p&gt;&lt;p style=&quot;margin:0px;margin-left:4px;&quot;&gt;+ getAttachments(): List&amp;lt;String&amp;gt;&amp;nbsp;&amp;nbsp;&lt;/p&gt;&lt;p style=&quot;margin:0px;margin-left:4px;&quot;&gt;+ setAttachments(attachments: List&amp;lt;String&amp;gt;): void&amp;nbsp;&amp;nbsp;&lt;/p&gt;&lt;p style=&quot;margin:0px;margin-left:4px;&quot;&gt;+ getOwner(): String&amp;nbsp;&amp;nbsp;&lt;/p&gt;&lt;p style=&quot;margin:0px;margin-left:4px;&quot;&gt;+ setOwner(owner: String): void&amp;nbsp;&amp;nbsp;&lt;/p&gt;&lt;p style=&quot;margin:0px;margin-left:4px;&quot;&gt;+ getIdTag(): String&amp;nbsp;&amp;nbsp;&lt;/p&gt;&lt;p style=&quot;margin:0px;margin-left:4px;&quot;&gt;+ setIdTag(idTag: String): void&amp;nbsp;&amp;nbsp;&lt;/p&gt;&lt;p style=&quot;margin: 0px 0px 0px 4px;&quot;&gt;&lt;br&gt;&lt;/p&gt;&lt;p style=&quot;margin:0px;margin-left:4px;&quot;&gt;&lt;br&gt;&lt;/p&gt;" style="verticalAlign=top;align=left;overflow=fill;html=1;whiteSpace=wrap;" vertex="1" parent="1">
          <mxGeometry x="1989" y="629" width="297" height="566" as="geometry" />
        </mxCell>
        <mxCell id="ycrKc_nbZSUXtRXo9pA7-4" value="&lt;p style=&quot;margin:0px;margin-top:4px;text-align:center;&quot;&gt;&lt;b&gt;Task&lt;/b&gt;&lt;/p&gt;&lt;hr size=&quot;1&quot; style=&quot;border-style:solid;&quot;&gt;&lt;p style=&quot;margin:0px;margin-left:4px;&quot;&gt;+ id: String&amp;nbsp;&amp;nbsp;&lt;/p&gt;&lt;p style=&quot;margin:0px;margin-left:4px;&quot;&gt;+ title: String&amp;nbsp;&amp;nbsp;&lt;/p&gt;&lt;p style=&quot;margin:0px;margin-left:4px;&quot;&gt;+ description: String&amp;nbsp;&amp;nbsp;&lt;/p&gt;&lt;p style=&quot;margin:0px;margin-left:4px;&quot;&gt;+ startDate: DateTime&amp;nbsp;&amp;nbsp;&lt;/p&gt;&lt;p style=&quot;margin:0px;margin-left:4px;&quot;&gt;+ endDate: DateTime&amp;nbsp;&amp;nbsp;&lt;/p&gt;&lt;p style=&quot;margin:0px;margin-left:4px;&quot;&gt;+ status: Status&amp;nbsp;&amp;nbsp;&lt;/p&gt;&lt;p style=&quot;margin:0px;margin-left:4px;&quot;&gt;+ priority: Priority&amp;nbsp;&amp;nbsp;&lt;/p&gt;&lt;p style=&quot;margin:0px;margin-left:4px;&quot;&gt;+ assignTo: String&amp;nbsp;&amp;nbsp;&lt;/p&gt;&lt;p style=&quot;margin:0px;margin-left:4px;&quot;&gt;+ projectOwner: String&amp;nbsp;&amp;nbsp;&lt;/p&gt;&lt;p style=&quot;margin:0px;margin-left:4px;&quot;&gt;+ complexity: Complexity&amp;nbsp;&amp;nbsp;&lt;/p&gt;&lt;p style=&quot;margin:0px;margin-left:4px;&quot;&gt;+ tag: String&amp;nbsp;&amp;nbsp;&lt;/p&gt;&lt;p style=&quot;margin:0px;margin-left:4px;&quot;&gt;+ attachments: List&amp;lt;String&amp;gt;&lt;/p&gt;&lt;hr size=&quot;1&quot; style=&quot;border-style:solid;&quot;&gt;&lt;p style=&quot;margin:0px;margin-left:4px;&quot;&gt;+ getId(): String&amp;nbsp;&amp;nbsp;&lt;/p&gt;&lt;p style=&quot;margin:0px;margin-left:4px;&quot;&gt;+ setId(id: String): void&amp;nbsp;&amp;nbsp;&lt;/p&gt;&lt;p style=&quot;margin:0px;margin-left:4px;&quot;&gt;+ getTitle(): String&amp;nbsp;&amp;nbsp;&lt;/p&gt;&lt;p style=&quot;margin:0px;margin-left:4px;&quot;&gt;+ setTitle(title: String): void&amp;nbsp;&amp;nbsp;&lt;/p&gt;&lt;p style=&quot;margin:0px;margin-left:4px;&quot;&gt;+ getDescription(): String&amp;nbsp;&amp;nbsp;&lt;/p&gt;&lt;p style=&quot;margin:0px;margin-left:4px;&quot;&gt;+ setDescription(description: String): void&amp;nbsp;&amp;nbsp;&lt;/p&gt;&lt;p style=&quot;margin:0px;margin-left:4px;&quot;&gt;+ getStartDate(): DateTime&amp;nbsp;&amp;nbsp;&lt;/p&gt;&lt;p style=&quot;margin:0px;margin-left:4px;&quot;&gt;+ setStartDate(startDate: DateTime): void&amp;nbsp;&amp;nbsp;&lt;/p&gt;&lt;p style=&quot;margin:0px;margin-left:4px;&quot;&gt;+ getEndDate(): DateTime&amp;nbsp;&amp;nbsp;&lt;/p&gt;&lt;p style=&quot;margin:0px;margin-left:4px;&quot;&gt;+ setEndDate(endDate: DateTime): void&amp;nbsp;&amp;nbsp;&lt;/p&gt;&lt;p style=&quot;margin:0px;margin-left:4px;&quot;&gt;+ getStatus(): Status&amp;nbsp;&amp;nbsp;&lt;/p&gt;&lt;p style=&quot;margin:0px;margin-left:4px;&quot;&gt;+ setStatus(status: Status): void&amp;nbsp;&amp;nbsp;&lt;/p&gt;&lt;p style=&quot;margin:0px;margin-left:4px;&quot;&gt;+ getPriority(): Priority&amp;nbsp;&amp;nbsp;&lt;/p&gt;&lt;p style=&quot;margin:0px;margin-left:4px;&quot;&gt;+ setPriority(priority: Priority): void&amp;nbsp;&amp;nbsp;&lt;/p&gt;&lt;p style=&quot;margin:0px;margin-left:4px;&quot;&gt;+ getAssignTo(): String&amp;nbsp;&amp;nbsp;&lt;/p&gt;&lt;p style=&quot;margin:0px;margin-left:4px;&quot;&gt;+ setAssignTo(assignTo: String): void&amp;nbsp;&amp;nbsp;&lt;/p&gt;&lt;p style=&quot;margin:0px;margin-left:4px;&quot;&gt;+ getProjectOwner(): String&amp;nbsp;&amp;nbsp;&lt;/p&gt;&lt;p style=&quot;margin:0px;margin-left:4px;&quot;&gt;+ setProjectOwner(projectOwner: String): void&amp;nbsp;&amp;nbsp;&lt;/p&gt;&lt;p style=&quot;margin:0px;margin-left:4px;&quot;&gt;+ getComplexity(): Complexity&amp;nbsp;&amp;nbsp;&lt;/p&gt;&lt;p style=&quot;margin:0px;margin-left:4px;&quot;&gt;+ setComplexity(complexity: Complexity): void&amp;nbsp;&amp;nbsp;&lt;/p&gt;&lt;p style=&quot;margin:0px;margin-left:4px;&quot;&gt;+ getTag(): String&amp;nbsp;&amp;nbsp;&lt;/p&gt;&lt;p style=&quot;margin:0px;margin-left:4px;&quot;&gt;+ setTag(tag: String): void&amp;nbsp;&amp;nbsp;&lt;/p&gt;&lt;p style=&quot;margin:0px;margin-left:4px;&quot;&gt;+ getAttachments(): List&amp;lt;String&amp;gt;&amp;nbsp;&amp;nbsp;&lt;/p&gt;&lt;p style=&quot;margin:0px;margin-left:4px;&quot;&gt;+ setAttachments(attachments: List&amp;lt;String&amp;gt;): void&amp;nbsp;&amp;nbsp;&lt;/p&gt;&lt;p style=&quot;margin: 0px 0px 0px 4px;&quot;&gt;&lt;br&gt;&lt;/p&gt;&lt;p style=&quot;margin:0px;margin-left:4px;&quot;&gt;&lt;br&gt;&lt;/p&gt;" style="verticalAlign=top;align=left;overflow=fill;html=1;whiteSpace=wrap;" vertex="1" parent="1">
          <mxGeometry x="2310" y="629" width="297" height="566" as="geometry" />
        </mxCell>
        <mxCell id="ycrKc_nbZSUXtRXo9pA7-5" value="&lt;p style=&quot;margin:0px;margin-top:4px;text-align:center;&quot;&gt;&lt;b&gt;User&lt;/b&gt;&lt;/p&gt;&lt;hr size=&quot;1&quot; style=&quot;border-style:solid;&quot;&gt;&lt;p style=&quot;margin:0px;margin-left:4px;&quot;&gt;+ id: String&amp;nbsp;&amp;nbsp;&lt;/p&gt;&lt;p style=&quot;margin:0px;margin-left:4px;&quot;&gt;+ name: String&amp;nbsp;&amp;nbsp;&lt;/p&gt;&lt;p style=&quot;margin:0px;margin-left:4px;&quot;&gt;+ job: String&amp;nbsp;&amp;nbsp;&lt;/p&gt;&lt;p style=&quot;margin:0px;margin-left:4px;&quot;&gt;+ phone: String?&amp;nbsp;&amp;nbsp;&lt;/p&gt;&lt;p style=&quot;margin:0px;margin-left:4px;&quot;&gt;+ email: String&amp;nbsp;&amp;nbsp;&lt;/p&gt;&lt;p style=&quot;margin:0px;margin-left:4px;&quot;&gt;+ imageUrl: String?&amp;nbsp;&amp;nbsp;&lt;/p&gt;&lt;p style=&quot;margin:0px;margin-left:4px;&quot;&gt;+ color: Color?&amp;nbsp;&amp;nbsp;&lt;/p&gt;&lt;p style=&quot;margin:0px;margin-left:4px;&quot;&gt;+ idTags: List&amp;lt;String&amp;gt;?&lt;/p&gt;&lt;hr size=&quot;1&quot; style=&quot;border-style:solid;&quot;&gt;&lt;p style=&quot;margin:0px;margin-left:4px;&quot;&gt;+ getId(): String&amp;nbsp;&amp;nbsp;&lt;/p&gt;&lt;p style=&quot;margin:0px;margin-left:4px;&quot;&gt;+ setId(id: String): void&amp;nbsp;&amp;nbsp;&lt;/p&gt;&lt;p style=&quot;margin:0px;margin-left:4px;&quot;&gt;+ getName(): String&amp;nbsp;&amp;nbsp;&lt;/p&gt;&lt;p style=&quot;margin:0px;margin-left:4px;&quot;&gt;+ setName(name: String): void&amp;nbsp;&amp;nbsp;&lt;/p&gt;&lt;p style=&quot;margin:0px;margin-left:4px;&quot;&gt;+ getJob(): String&amp;nbsp;&amp;nbsp;&lt;/p&gt;&lt;p style=&quot;margin:0px;margin-left:4px;&quot;&gt;+ setJob(job: String): void&amp;nbsp;&amp;nbsp;&lt;/p&gt;&lt;p style=&quot;margin:0px;margin-left:4px;&quot;&gt;+ getPhone(): String?&amp;nbsp;&amp;nbsp;&lt;/p&gt;&lt;p style=&quot;margin:0px;margin-left:4px;&quot;&gt;+ setPhone(phone: String?): void&amp;nbsp;&amp;nbsp;&lt;/p&gt;&lt;p style=&quot;margin:0px;margin-left:4px;&quot;&gt;+ getEmail(): String&amp;nbsp;&amp;nbsp;&lt;/p&gt;&lt;p style=&quot;margin:0px;margin-left:4px;&quot;&gt;+ setEmail(email: String): void&amp;nbsp;&amp;nbsp;&lt;/p&gt;&lt;p style=&quot;margin:0px;margin-left:4px;&quot;&gt;+ getImageUrl(): String?&amp;nbsp;&amp;nbsp;&lt;/p&gt;&lt;p style=&quot;margin:0px;margin-left:4px;&quot;&gt;+ setImageUrl(imageUrl: String?): void&amp;nbsp;&amp;nbsp;&lt;/p&gt;&lt;p style=&quot;margin:0px;margin-left:4px;&quot;&gt;&lt;br&gt;&lt;/p&gt;&lt;p style=&quot;margin:0px;margin-left:4px;&quot;&gt;+ getColor(): Color?&amp;nbsp;&amp;nbsp;&lt;/p&gt;&lt;p style=&quot;margin:0px;margin-left:4px;&quot;&gt;+ setColor(color: Color?): void&amp;nbsp;&amp;nbsp;&lt;/p&gt;&lt;p style=&quot;margin:0px;margin-left:4px;&quot;&gt;+ getIdTags(): List&amp;lt;String&amp;gt;?&amp;nbsp;&amp;nbsp;&lt;/p&gt;&lt;p style=&quot;margin:0px;margin-left:4px;&quot;&gt;+ setIdTags(idTags: List&amp;lt;String&amp;gt;?): void&amp;nbsp;&amp;nbsp;&lt;/p&gt;" style="verticalAlign=top;align=left;overflow=fill;html=1;whiteSpace=wrap;" vertex="1" parent="1">
          <mxGeometry x="2624" y="629" width="297" height="408" as="geometry" />
        </mxCell>
        <mxCell id="ycrKc_nbZSUXtRXo9pA7-6" value="&lt;p style=&quot;margin:0px;margin-top:4px;text-align:center;&quot;&gt;&lt;b&gt;FileMetadataFlutter&lt;/b&gt;&lt;/p&gt;&lt;hr size=&quot;1&quot; style=&quot;border-style:solid;&quot;&gt;&lt;p style=&quot;margin:0px;margin-left:4px;&quot;&gt;+ id: String&amp;nbsp;&amp;nbsp;&lt;/p&gt;&lt;p style=&quot;margin:0px;margin-left:4px;&quot;&gt;+ fileName: String&amp;nbsp;&amp;nbsp;&lt;/p&gt;&lt;p style=&quot;margin:0px;margin-left:4px;&quot;&gt;+ fileType: String&amp;nbsp;&amp;nbsp;&lt;/p&gt;&lt;p style=&quot;margin:0px;margin-left:4px;&quot;&gt;+ url: String&amp;nbsp;&amp;nbsp;&lt;/p&gt;&lt;hr size=&quot;1&quot; style=&quot;border-style:solid;&quot;&gt;&lt;p style=&quot;margin:0px;margin-left:4px;&quot;&gt;+ getId(): String&amp;nbsp;&amp;nbsp;&lt;/p&gt;&lt;p style=&quot;margin:0px;margin-left:4px;&quot;&gt;+ setId(id: String): void&amp;nbsp;&amp;nbsp;&lt;/p&gt;&lt;p style=&quot;margin:0px;margin-left:4px;&quot;&gt;+ getFileName(): String&amp;nbsp;&amp;nbsp;&lt;/p&gt;&lt;p style=&quot;margin:0px;margin-left:4px;&quot;&gt;+ setFileName(fileName: String): void&amp;nbsp;&amp;nbsp;&lt;/p&gt;&lt;p style=&quot;margin:0px;margin-left:4px;&quot;&gt;+ getFileType(): String&amp;nbsp;&amp;nbsp;&lt;/p&gt;&lt;p style=&quot;margin:0px;margin-left:4px;&quot;&gt;+ setFileType(fileType: String): void&amp;nbsp;&amp;nbsp;&lt;/p&gt;&lt;p style=&quot;margin:0px;margin-left:4px;&quot;&gt;+ getUrl(): String&amp;nbsp;&amp;nbsp;&lt;/p&gt;&lt;p style=&quot;margin:0px;margin-left:4px;&quot;&gt;+ setUrl(url: String): void&amp;nbsp;&lt;/p&gt;" style="verticalAlign=top;align=left;overflow=fill;html=1;whiteSpace=wrap;" vertex="1" parent="1">
          <mxGeometry x="2624" y="1054.5" width="297" height="222" as="geometry" />
        </mxCell>
      </root>
    </mxGraphModel>
  </diagram>
</mxfile>
